<?xml version="1.0" standalone="no"?>
<!DOCTYPE svg PUBLIC "-//W3C//DTD SVG 20010904//EN"
 "http://www.w3.org/TR/2001/REC-SVG-20010904/DTD/svg10.dtd">
<svg version="1.0" xmlns="http://www.w3.org/2000/svg"
 width="120.000000pt" height="120.000000pt" viewBox="0 0 120.000000 120.000000"
 preserveAspectRatio="xMidYMid meet">

<g transform="translate(0.000000,120.000000) scale(0.100000,-0.100000)"
fill="#000000" stroke="none">
<path d="M512 1069 c-260 -43 -440 -318 -380 -578 l11 -51 83 0 83 0 3 42 c3
42 28 68 28 30 0 -12 9 -23 19 -27 11 -3 23 -15 26 -26 10 -32 79 -26 116 10
35 36 37 75 6 113 -18 22 -38 30 -95 41 -40 8 -77 18 -82 23 -9 9 17 194 28
206 8 9 513 -80 526 -92 12 -12 -25 -59 -46 -60 -20 0 -24 -16 -7 -22 16 -5
-17 -67 -39 -75 -9 -3 -25 -13 -34 -21 -15 -13 -29 -13 -84 -4 -58 10 -70 9
-90 -6 -13 -10 -24 -28 -24 -42 0 -14 -9 -40 -20 -58 l-20 -32 265 0 264 0 10
38 c18 62 13 193 -9 265 -51 164 -187 286 -359 323 -73 15 -102 16 -179 3z"/>
<path d="M380 821 c0 -11 -2 -11 259 -57 175 -30 229 -36 210 -21 -2 2 -101
20 -219 41 -118 20 -223 39 -232 42 -10 3 -18 1 -18 -5z"/>
<path d="M365 743 c-3 -21 -8 -47 -10 -59 -4 -20 6 -23 174 -52 98 -18 185
-32 194 -32 16 0 74 97 64 106 -4 5 -384 74 -404 74 -7 0 -15 -17 -18 -37z
m299 -92 c3 -4 16 -6 30 -4 13 3 27 0 30 -6 9 -15 -19 -25 -41 -16 -10 4 -29
8 -42 9 -33 1 -40 26 -7 26 13 0 27 -4 30 -9z"/>
<path d="M535 590 c3 -5 13 -10 21 -10 8 0 14 5 14 10 0 6 -9 10 -21 10 -11 0
-17 -4 -14 -10z"/>
<path d="M340 450 c0 -5 5 -10 10 -10 6 0 10 5 10 10 0 6 -4 10 -10 10 -5 0
-10 -4 -10 -10z"/>
<path d="M280 242 c0 -13 100 -74 159 -95 80 -30 244 -30 319 0 61 25 152 81
152 94 0 5 -136 9 -315 9 -173 0 -315 -3 -315 -8z"/>
</g>
</svg>
